<?xml version="1.0" encoding="UTF-8"?>
<svg width="3236" height="1154" viewBox="0 0 3236 1154" xmlns="http://www.w3.org/2000/svg" xmlns:xlink="http://www.w3.org/1999/xlink">
    <path id="H" fill="#111111" fill-rule="evenodd" stroke="none" d="M 782.694336 1096 L 580.969238 1096 L 580.969238 684.062988 L 202.979492 684.062988 L 202.979492 1096 L 0.601563 1096 L 0.601563 141.55957 L 202.979492 141.55957 L 202.979492 515.632324 L 580.969238 515.632324 L 580.969238 141.55957 L 782.694336 141.55957 Z"/>
    <path id="I" fill="#111111" fill-rule="evenodd" stroke="none" d="M 1014.289307 1096 L 1014.289307 141.55957 L 1216.667236 141.55957 L 1216.667236 1096 Z"/>
    <path id="V" fill="#111111" fill-rule="evenodd" stroke="none" d="M 2123.482422 1153.21875 L 2445.007813 275.667969 L 2506.195313 310.974609 L 2506.195313 932.289063 L 2123.482422 1153.21875 Z M 1791.667969 1141.089844 L 1429.964844 932.289063 L 1429.964844 310.974609 L 1477.505859 283.574219 L 1791.667969 1141.089844 Z M 1959.849609 926.65625 L 1707.630859 150.691406 L 1968.078125 0.263672 L 2214.556641 142.568359 L 1959.849609 926.65625 Z"/>
    <path id="E" fill="#111111" fill-rule="evenodd" stroke="none" d="M 3235.307373 1096 L 2685.622803 1096 L 2685.622803 141.55957 L 3235.307373 141.55957 L 3235.307373 307.378906 L 2888.000732 307.378906 L 2888.000732 516.937988 L 3211.152588 516.937988 L 3211.152588 682.757324 L 2888.000732 682.757324 L 2888.000732 928.875 L 3235.307373 928.875 Z"/>
</svg>
